<svg width="960" height="600" viewBox="0 0 960 600" fill="none" xmlns="http://www.w3.org/2000/svg">
  <rect width="960" height="600" rx="24" fill="#F8FAFC"/>
  <rect x="34" y="34" width="892" height="532" rx="18" fill="#FFFFFF" stroke="#E2E8F0" stroke-width="2"/>
  <rect x="70" y="70" width="190" height="210" rx="12" fill="#E2E8F0"/>
  <rect x="280" y="70" width="610" height="28" rx="6" fill="#0F172A"/>
  <rect x="280" y="108" width="420" height="12" rx="6" fill="#CBD5F5"/>
  <rect x="280" y="128" width="320" height="10" rx="5" fill="#E2E8F0"/>
  <rect x="280" y="150" width="520" height="10" rx="5" fill="#E2E8F0"/>
  <rect x="280" y="172" width="460" height="10" rx="5" fill="#E2E8F0"/>

  <rect x="70" y="300" width="820" height="28" rx="6" fill="#E2E8F0"/>
  <rect x="70" y="338" width="820" height="96" rx="10" fill="#F8FAFC" stroke="#E2E8F0"/>
  <rect x="90" y="358" width="220" height="12" rx="6" fill="#94A3B8"/>
  <rect x="90" y="378" width="320" height="10" rx="5" fill="#CBD5F5"/>
  <rect x="90" y="396" width="420" height="10" rx="5" fill="#E2E8F0"/>
  <rect x="520" y="358" width="140" height="12" rx="6" fill="#94A3B8"/>
  <rect x="520" y="378" width="220" height="10" rx="5" fill="#CBD5F5"/>
  <rect x="520" y="396" width="260" height="10" rx="5" fill="#E2E8F0"/>

  <rect x="70" y="448" width="820" height="96" rx="10" fill="#F8FAFC" stroke="#E2E8F0"/>
  <rect x="90" y="468" width="180" height="12" rx="6" fill="#94A3B8"/>
  <rect x="90" y="488" width="280" height="10" rx="5" fill="#CBD5F5"/>
  <rect x="90" y="506" width="340" height="10" rx="5" fill="#E2E8F0"/>
  <rect x="520" y="468" width="130" height="12" rx="6" fill="#94A3B8"/>
  <rect x="520" y="488" width="220" height="10" rx="5" fill="#CBD5F5"/>
  <rect x="520" y="506" width="260" height="10" rx="5" fill="#E2E8F0"/>
</svg>
