<svg width="960" height="600" viewBox="0 0 960 600" fill="none" xmlns="http://www.w3.org/2000/svg">
  <defs>
    <linearGradient id="header" x1="0" y1="0" x2="1" y2="1">
      <stop offset="0%" stop-color="#0F172A"/>
      <stop offset="60%" stop-color="#1E3A8A"/>
      <stop offset="100%" stop-color="#2563EB"/>
    </linearGradient>
  </defs>
  <rect width="960" height="600" rx="24" fill="#EFF6FF"/>
  <rect x="34" y="34" width="892" height="532" rx="18" fill="#FFFFFF"/>
  <rect x="70" y="70" width="820" height="140" rx="16" fill="url(#header)"/>
  <rect x="100" y="100" width="240" height="26" rx="13" fill="#FFFFFF" fill-opacity="0.9"/>
  <rect x="100" y="136" width="170" height="14" rx="7" fill="#E2E8F0" fill-opacity="0.75"/>
  <rect x="100" y="160" width="420" height="12" rx="6" fill="#E2E8F0" fill-opacity="0.65"/>
  <rect x="100" y="182" width="300" height="12" rx="6" fill="#E2E8F0" fill-opacity="0.65"/>

  <rect x="70" y="240" width="520" height="130" rx="14" fill="#F8FAFC" stroke="#E2E8F0" stroke-width="2"/>
  <rect x="70" y="390" width="520" height="150" rx="14" fill="#F8FAFC" stroke="#E2E8F0" stroke-width="2"/>
  <rect x="620" y="240" width="270" height="130" rx="14" fill="#EFF6FF" stroke="#BFDBFE" stroke-width="2"/>
  <rect x="620" y="390" width="270" height="150" rx="14" fill="#F1F5F9" stroke="#E2E8F0" stroke-width="2"/>

  <rect x="90" y="268" width="160" height="14" rx="7" fill="#94A3B8"/>
  <rect x="90" y="290" width="260" height="10" rx="5" fill="#CBD5F5"/>
  <rect x="90" y="308" width="320" height="10" rx="5" fill="#E2E8F0"/>
  <rect x="90" y="415" width="180" height="14" rx="7" fill="#94A3B8"/>
  <rect x="90" y="438" width="260" height="10" rx="5" fill="#CBD5F5"/>
  <rect x="90" y="456" width="320" height="10" rx="5" fill="#E2E8F0"/>

  <rect x="640" y="266" width="160" height="12" rx="6" fill="#93C5FD"/>
  <rect x="640" y="288" width="200" height="10" rx="5" fill="#BFDBFE"/>
  <rect x="640" y="308" width="220" height="10" rx="5" fill="#E2E8F0"/>
  <rect x="640" y="415" width="140" height="12" rx="6" fill="#94A3B8"/>
  <rect x="640" y="438" width="200" height="10" rx="5" fill="#CBD5F5"/>
  <rect x="640" y="456" width="220" height="10" rx="5" fill="#E2E8F0"/>
</svg>
